<?xml version="1.0" encoding="UTF-8"?>
<svg width="18px" height="15px" viewBox="0 0 18 15" version="1.1" xmlns="http://www.w3.org/2000/svg" xmlns:xlink="http://www.w3.org/1999/xlink">
    <title>vip (2)</title>
    <g id="知识库" stroke="none" stroke-width="1" fill="none" fill-rule="evenodd">
        <g id="2.1空间详情-详情" transform="translate(-504.000000, -207.000000)" fill-rule="nonzero">
            <g id="编组-8" transform="translate(504.000411, 204.000000)">
                <g id="编组-17备份" transform="translate(0.000000, 0.000000)">
                    <g id="vip-(2)" transform="translate(0.000000, 3.009311)">
                        <polygon id="路径" fill="#FFEFC7" points="3.66316009 0.0175270818 13.7938134 0.0175270818 13.7938134 5.36328702 3.66316009 5.36328702"></polygon>
                        <polygon id="路径" fill="#FFE3A4" points="13.7762863 5.06532663 8.69343256 5.06532663 8.71095964 0.0175270818 13.7762863 0.0175270818"></polygon>
                        <polygon id="路径" fill="#FFC84D" points="8.71095964 5.06532663 16.3001861 5.06532663 8.71095964 14.35468"></polygon>
                        <polygon id="路径" fill="#FFB53E" points="11.8132531 5.06532663 17.4394464 5.06532663 8.71095964 14.35468"></polygon>
                        <polygon id="路径" fill="#FFCC66" points="11.8132531 5.06532663 17.4394464 5.06532663 13.7762863 0.0175270818"></polygon>
                        <polygon id="路径" fill="#FFC84D" points="8.71095964 5.06532663 1.12173323 5.06532663 8.71095964 14.3371529"></polygon>
                        <polygon id="路径" fill="#FFB53E" points="5.62619325 5.06532663 0 5.06532663 8.71095964 14.3371529"></polygon>
                        <polygon id="路径" fill="#FFDE86" points="5.62619325 5.06532663 0 5.06532663 3.66316009 0.0175270818 5.62619325 5.06532663"></polygon>
                        <polygon id="路径" fill="#FFD473" points="11.8132531 5.06532663 5.62619325 5.06532663 8.71095964 0"></polygon>
                    </g>
                </g>
            </g>
        </g>
    </g>
</svg>